<svg width="212" height="111" viewBox="0 0 212 111" fill="none" xmlns="http://www.w3.org/2000/svg">
<path d="M6 5.99907C11.8861 4.33973 17.1892 4.69476 22.9996 7.99979C37.2482 16.1047 18.9381 48.2617 23.0025 64.9546M206 69.9919C182.669 79.6355 53.1589 83.0313 32.002 72.9606" stroke="#E97854" stroke-width="10" stroke-linecap="round" stroke-linejoin="round"/>
<circle cx="182.997" cy="96.9988" r="8.99988" stroke="#E97854" stroke-width="10"/>
<path d="M54.0017 96.9911C54.0017 101.962 49.9723 105.991 45.0018 105.991C40.0313 105.991 36.002 101.962 36.002 96.9911C36.002 92.0206 40.0313 87.9912 45.0018 87.9912" stroke="#E97854" stroke-width="10" stroke-linecap="round" stroke-linejoin="round"/>
<path d="M50.9986 8.99949C54.1416 8.51214 64.9345 9.88508 69.9983 15.9497C75.3202 22.3233 76.195 30.9428 72.9983 36.9991C66.914 48.5262 35.9988 41.9991 35.9988 41.9991" stroke="#E97854" stroke-width="10" stroke-linecap="round" stroke-linejoin="round"/>
<circle cx="38.999" cy="8.99994" r="4.99994" fill="#E97854"/>
<path d="M130.62 27.7139C130.62 27.7139 132.409 13.9998 116.308 13.9998C100.207 13.9998 100.207 37.9994 114.519 37.9994H119.886C137.776 37.9994 134.198 61.9991 119.886 61.9991C105.574 61.9991 105.574 53.4278 105.574 51.7136" stroke="#E97854" stroke-width="10" stroke-linecap="round" stroke-linejoin="round"/>
<path d="M188.998 31.9991V61.9988" stroke="#E97854" stroke-width="10" stroke-linecap="round" stroke-linejoin="round"/>
<circle cx="188.998" cy="21.0001" r="4.99994" fill="#E97854"/>
<path d="M86.9988 31.9991V61.9988" stroke="#E97854" stroke-width="10" stroke-linecap="round" stroke-linejoin="round"/>
<circle cx="86.999" cy="21.0001" r="4.99994" fill="#E97854"/>
<path d="M147.998 31.999V61.9986M147.998 38.3626C147.998 38.3626 153.552 31.999 162.998 31.999C172.443 31.999 173.998 39.2717 173.998 39.2717" stroke="#E97854" stroke-width="10" stroke-linecap="round" stroke-linejoin="round"/>
</svg>
