<svg width="106" height="56" viewBox="0 0 106 56" fill="none" xmlns="http://www.w3.org/2000/svg">
<path d="M3 2.99947C5.94304 2.1698 8.59461 2.34732 11.4998 3.99983C18.6241 8.05227 9.46905 24.1308 11.5012 32.4772M103 34.9959C91.3344 39.8177 26.5795 41.5156 16.001 36.4802" stroke="#E97854" stroke-width="5" stroke-linecap="round" stroke-linejoin="round"/>
<circle cx="91.4986" cy="48.4995" r="4.49994" stroke="#E97854" stroke-width="5"/>
<path d="M27.0009 48.4955C27.0009 50.9808 24.9862 52.9955 22.501 52.9955C20.0157 52.9955 18.001 50.9808 18.001 48.4955C18.001 46.0103 20.0157 43.9956 22.501 43.9956" stroke="#E97854" stroke-width="5" stroke-linecap="round" stroke-linejoin="round"/>
<path d="M25.4995 4.49968C27.071 4.25601 32.4674 4.94248 34.9994 7.97477C37.6603 11.1616 38.0977 15.4713 36.4993 18.4995C33.4572 24.263 17.9996 20.9995 17.9996 20.9995" stroke="#E97854" stroke-width="5" stroke-linecap="round" stroke-linejoin="round"/>
<circle cx="19.4995" cy="4.49997" r="2.49997" fill="#E97854"/>
<path d="M65.3098 13.8571C65.3098 13.8571 66.2043 7 58.1539 7C50.1035 7 50.1035 18.9998 57.2594 18.9998H59.9429C68.8878 18.9998 67.0988 30.9997 59.9429 30.9997C52.787 30.9997 52.787 26.714 52.787 25.8569" stroke="#E97854" stroke-width="5" stroke-linecap="round" stroke-linejoin="round"/>
<path d="M94.4988 15.9995V30.9993" stroke="#E97854" stroke-width="5" stroke-linecap="round" stroke-linejoin="round"/>
<circle cx="94.4988" cy="10.5" r="2.49997" fill="#E97854"/>
<path d="M43.4995 15.9995V30.9993" stroke="#E97854" stroke-width="5" stroke-linecap="round" stroke-linejoin="round"/>
<circle cx="43.4995" cy="10.5" r="2.49997" fill="#E97854"/>
<path d="M73.9991 15.9995V30.9993M73.9991 19.1813C73.9991 19.1813 76.7763 15.9995 81.499 15.9995C86.2217 15.9995 86.9989 19.6358 86.9989 19.6358" stroke="#E97854" stroke-width="5" stroke-linecap="round" stroke-linejoin="round"/>
</svg>
