<svg width="212" height="111" viewBox="0 0 212 111" fill="none" xmlns="http://www.w3.org/2000/svg">
<path d="M6 5.99894C11.8861 4.33961 17.1892 4.69464 22.9996 7.99967C37.2482 16.1045 18.9381 48.2616 23.0025 64.9545M206 69.9917C182.669 79.6354 53.1589 83.0312 32.002 72.9604" stroke="#E97854" stroke-width="10" stroke-linecap="round" stroke-linejoin="round"/>
<circle cx="182.997" cy="96.9989" r="8.99988" stroke="#E97854" stroke-width="10"/>
<path d="M54.0017 96.9911C54.0017 101.962 49.9723 105.991 45.0018 105.991C40.0313 105.991 36.002 101.962 36.002 96.9911C36.002 92.0206 40.0313 87.9912 45.0018 87.9912" stroke="#E97854" stroke-width="10" stroke-linecap="round" stroke-linejoin="round"/>
<path d="M50.9988 8.99937C54.1419 8.51202 64.9348 9.88496 69.9986 15.9495C75.3205 22.3232 76.1952 30.9427 72.9985 36.999C66.9143 48.5261 35.999 41.999 35.999 41.999" stroke="#E97854" stroke-width="10" stroke-linecap="round" stroke-linejoin="round"/>
<circle cx="38.999" cy="8.99994" r="4.99994" fill="#E97854"/>
<path d="M130.62 27.7141C130.62 27.7141 132.409 14 116.308 14C100.207 14 100.207 37.9997 114.519 37.9997H119.886C137.776 37.9997 134.198 61.9994 119.886 61.9994C105.574 61.9994 105.574 53.4281 105.574 51.7138" stroke="#E97854" stroke-width="10" stroke-linecap="round" stroke-linejoin="round"/>
<path d="M188.998 31.999V61.9986" stroke="#E97854" stroke-width="10" stroke-linecap="round" stroke-linejoin="round"/>
<circle cx="188.998" cy="20.9999" r="4.99994" fill="#E97854"/>
<path d="M86.999 31.999V61.9986" stroke="#E97854" stroke-width="10" stroke-linecap="round" stroke-linejoin="round"/>
<circle cx="86.999" cy="20.9999" r="4.99994" fill="#E97854"/>
<path d="M147.998 31.999V61.9986M147.998 38.3626C147.998 38.3626 153.552 31.999 162.998 31.999C172.443 31.999 173.998 39.2717 173.998 39.2717" stroke="#E97854" stroke-width="10" stroke-linecap="round" stroke-linejoin="round"/>
</svg>
